<?xml version="1.0" encoding="iso-8859-1"?>
<!-- Uploaded to: SVG Repo, www.svgrepo.com, Generator: SVG Repo Mixer Tools -->
<svg version="1.1" id="Layer_1" xmlns="http://www.w3.org/2000/svg" xmlns:xlink="http://www.w3.org/1999/xlink" 
	 viewBox="0 0 496 496" xml:space="preserve">
<path style="fill:#2FA0F4;" d="M444,370.4c12-26.4,18.4-56,18.4-86.4c0-118.4-96-214.4-214.4-214.4S33.6,164.8,33.6,283.2
	c0,31.2,6.4,60,18.4,86.4h392V370.4z"/>
<path style="fill:#1077DD;" d="M444,370.4c12-26.4,18.4-56,18.4-86.4c0-118.4-96-214.4-214.4-214.4"/>
<path style="fill:#4DBBFF;" d="M248,68.8c-118.4,0-214.4,96-214.4,214.4c0,31.2,6.4,60,18.4,86.4"/>
<rect x="211.2" y="173.6" style="fill:#798E86;" width="73.6" height="43.2"/>
<polyline style="fill:#677A72;" points="284.8,216.8 284.8,173.6 211.2,173.6 "/>
<g>
	<path style="fill:#2A302D;" d="M230.4,215.2c0,3.2-2.4,5.6-5.6,5.6l0,0c-3.2,0-5.6-2.4-5.6-5.6v-18.4c0-3.2,2.4-5.6,5.6-5.6l0,0
		c3.2,0,5.6,2.4,5.6,5.6V215.2z"/>
	<path style="fill:#2A302D;" d="M253.6,215.2c0,3.2-2.4,5.6-5.6,5.6l0,0c-3.2,0-5.6-2.4-5.6-5.6v-18.4c0-3.2,2.4-5.6,5.6-5.6l0,0
		c3.2,0,5.6,2.4,5.6,5.6V215.2z"/>
	<path style="fill:#2A302D;" d="M276.8,215.2c0,3.2-2.4,5.6-5.6,5.6l0,0c-3.2,0-5.6-2.4-5.6-5.6v-18.4c0-3.2,2.4-5.6,5.6-5.6l0,0
		c3.2,0,5.6,2.4,5.6,5.6V215.2z"/>
</g>
<rect x="172.8" y="212.8" style="fill:#BADBCA;" width="151.2" height="33.6"/>
<polyline style="fill:#CFE5D8;" points="323.2,212.8 172.8,212.8 172.8,246.4 "/>
<rect x="153.6" y="241.6" style="fill:#A4C1B2;" width="188.8" height="33.6"/>
<polyline style="fill:#AFCEBF;" points="342.4,241.6 153.6,241.6 153.6,275.2 "/>
<rect x="130.4" y="271.2" style="fill:#97B7A7;" width="236" height="33.6"/>
<polyline style="fill:#A5C4B6;" points="365.6,271.2 130.4,271.2 130.4,304.8 "/>
<rect x="100.8" y="300.8" style="fill:#8DAA9D;" width="294.4" height="33.6"/>
<polyline style="fill:#9AB7AB;" points="395.2,300.8 100.8,300.8 100.8,334.4 "/>
<rect x="64" y="330.4" style="fill:#7E998E;" width="368" height="33.6"/>
<polyline style="fill:#8CA59B;" points="432,330.4 64,330.4 64,364 "/>
<rect x="28.8" y="359.2" style="fill:#697F76;" width="438.4" height="33.6"/>
<polyline style="fill:#798E86;" points="467.2,359.2 28.8,359.2 28.8,392.8 "/>
<path style="fill:#30423B;" d="M496,420.8c0,3.2-3.2,6.4-6.4,6.4H6.4c-3.2,0-6.4-3.2-6.4-6.4v-21.6c0-3.2,3.2-6.4,6.4-6.4h483.2
	c3.2,0,6.4,2.4,6.4,6.4V420.8z"/>
<path style="fill:#3D514A;" d="M6.4,427.2c-3.2,0-6.4-3.2-6.4-6.4v-21.6c0-3.2,3.2-6.4,6.4-6.4h483.2c3.2,0,6.4,2.4,6.4,6.4"/>
<g>
	<path style="fill:#5C7068;" d="M184.8,423.2v-24c0-2.4,0.8-8.8,4-8.8h4v-32.8h10.4V328h10.4v-29.6h8.8v-29.6h7.2v-29.6h5.6V212
		h27.2v27.2h5.6v29.6h7.2v29.6h8.8V328h10.4v29.6h10.4v32.8h4c4,0,4,6.4,4,8.8v24L184.8,423.2L184.8,423.2z"/>
	<path style="fill:#5C7068;" d="M184.8,423.2v-24c0-2.4,0.8-8.8,4-8.8h4v-32.8h10.4V328h10.4v-29.6h8.8v-29.6h7.2v-29.6h5.6v-24
		h27.2v24h5.6v29.6h7.2v29.6h8.8V328h10.4v29.6h10.4v32.8h4c4,0,4,6.4,4,8.8v24L184.8,423.2L184.8,423.2z"/>
</g>
<path style="fill:#141916;" d="M184.8,423.2v-24c0-2.4,0.8-8.8,4-8.8h4v-32.8h10.4V328h10.4v-29.6h8.8v-29.6h7.2v-29.6h5.6V220h27.2
	v19.2h5.6v29.6h7.2v29.6h8.8V328h10.4v29.6h10.4v32.8h4c4,0,4,6.4,4,8.8v24L184.8,423.2L184.8,423.2z"/>
<path style="fill:#2A302D;" d="M184.8,423.2v-24c0-2.4,0.8-8.8,4-8.8h4v-32.8h10.4V328h10.4v-29.6h8.8v-29.6h7.2v-29.6h5.6V220h27.2
	v19.2h5.6v29.6h7.2v29.6h8.8V328h10.4v29.6h10.4v32.8h4c4,0,4,6.4,4,8.8"/>
<polygon style="fill:#5C7068;" points="235.2,212.8 235.2,239.2 229.6,239.2 229.6,246.4 267.2,246.4 267.2,239.2 261.6,239.2 
	261.6,212.8 "/>
<polyline style="fill:#657C72;" points="261.6,212.8 235.2,212.8 235.2,239.2 229.6,239.2 "/>
<polygon style="fill:#495B53;" points="229.6,241.6 229.6,268.8 222.4,268.8 222.4,275.2 274.4,275.2 274.4,268.8 267.2,268.8 
	267.2,241.6 "/>
<polyline style="fill:#586B62;" points="267.2,241.6 229.6,241.6 229.6,268.8 222.4,268.8 222.4,275.2 "/>
<polygon style="fill:#405149;" points="222.4,271.2 222.4,298.4 214.4,298.4 214.4,304.8 282.4,304.8 282.4,298.4 274.4,298.4 
	274.4,271.2 "/>
<polyline style="fill:#526059;" points="274.4,271.2 222.4,271.2 222.4,298.4 214.4,298.4 214.4,304.8 "/>
<polygon style="fill:#35423B;" points="214.4,300.8 214.4,328 203.2,328 203.2,334.4 293.6,334.4 293.6,328 282.4,328 282.4,300.8 
	"/>
<polyline style="fill:#404C45;" points="282.4,300.8 214.4,300.8 214.4,328 203.2,328 203.2,334.4 "/>
<polygon style="fill:#242D28;" points="203.2,330.4 203.2,356.8 193.6,356.8 193.6,364 303.2,364 303.2,356.8 293.6,356.8 
	293.6,330.4 "/>
<polyline style="fill:#3D4741;" points="293.6,330.4 203.2,330.4 203.2,356.8 193.6,356.8 193.6,364 "/>
<path style="fill:#171E1A;" d="M193.6,359.2v30.4h-4c-1.6,0-3.2,1.6-3.2,3.2H312c-0.8-1.6-1.6-3.2-3.2-3.2h-4v-30.4H193.6z"/>
<path style="fill:#2B332E;" d="M303.2,359.2H193.6v30.4h-4c-1.6,0-3.2,1.6-3.2,3.2"/>
<path style="fill:#8CA59B;" d="M292,172c0,1.6-0.8,2.4-2.4,2.4h-82.4c-1.6,0-2.4-0.8-2.4-2.4l0,0c0-1.6,0.8-2.4,2.4-2.4h82.4
	C290.4,169.6,292,170.4,292,172L292,172z"/>
<g>
	<path style="fill:#B1C4BC;" d="M237.6,207.2L237.6,207.2h-4.8v4.8v24.8H232h-4.8v4.8v24.8h-1.6h-4.8v4.8V296h-3.2h-4.8v4.8v24.8
		h-5.6h-4.8v4.8v24.8h-4.8h-4.8v4.8v28h-1.6c-2.4,0-6.4,0.8-6.4,11.2v21.6v4.8h4.8l0,0v-4.8l0,0v-21.6c0-3.2,0.8-6.4,1.6-6.4h6.4
		V360H208v-29.6h10.4v-29.6h8.8v-29.6h4.8v-29.6h5.6V212l0,0V207.2z"/>
	<path style="fill:#B1C4BC;" d="M307.2,387.2h-1.6v-28v-4.8h-4.8H296v-24.8v-4.8h-4.8h-5.6V300v-4H280h-3.2v-24.8v-4.8H272h-1.6
		v-24.8v-4.8h-4.8H264V212v-4.8h-4.8l0,0v4.8l0,0v29.6h5.6v29.6h7.2v29.6h8v29.6h10.4V360h10.4v32.8h6.4c0.8,0,1.6,2.4,1.6,6.4v21.6
		l0,0v4.8l0,0h4.8v-4.8v-21.6C314.4,388.8,309.6,387.2,307.2,387.2z"/>
</g>
</svg>